# xmcd
#
# Track frame offsets: 
#        150
#        27081
#        45903
#        79652
#        105795
#        126865
#        145240
#        161819
#        184721
#        223249
#
# Disc length: 3181 seconds
#
# Revision: 13
# Processed by: cddbd v1.5.2PL0 Copyright (c) Steve Scherf et al.
# Submitted via: ExactAudioCopy v0.95a4
#
DISCID=7d0c6b0a
DTITLE=AC-DC - If You Want Blood You've Got It (Australia)
DYEAR=1978
DGENRE=Hard Rock
TTITLE0=Riff Raff
TTITLE1=Hell Ain't A Bad Place To Be
TTITLE2=Bad Boy Boogie
TTITLE3=The Jack
TTITLE4=Problem Child
TTITLE5=Whole Lotta Rosie
TTITLE6=Rock 'N' Roll Damnation
TTITLE7=High Voltage
TTITLE8=Let There Be Rock
TTITLE9=Rocker
EXTD=Year: 2003 (First/Original Release at 1978]\n\n\n\n              
EXTD=                                   www.acdcrocks.com\n\n
EXTD=\n\n                                                          www
EXTD=sonybmg.com.au\n\n\n\nThis CD takes advantage of ConnecteD techn
EXTD=ology and will work as a key to unlock exclusive \nBonus Music, V
EXTD=ideos, Photos and more at:       www.acdcrocks.com
EXTT0=
EXTT1=
EXTT2=
EXTT3=
EXTT4=
EXTT5=
EXTT6=
EXTT7=
EXTT8=
EXTT9=
PLAYORDER=
